HIERARCHY
ROOT Hips
{
	OFFSET -0.001795 -0.223333 0.028219
	CHANNELS 6 Xposition Yposition Zposition Zrotation Yrotation Xrotation 
	JOINT LeftUpLeg
	{
		OFFSET 0.069520 -0.091406 -0.006815
		CHANNELS 3 Zrotation Yrotation Xrotation
		JOINT LeftLeg
		{
			OFFSET 0.034277 -0.375199 -0.004496
			CHANNELS 3 Zrotation Yrotation Xrotation
			JOINT LeftFoot
			{
				OFFSET -0.013596 -0.397961 -0.043693
				CHANNELS 3 Zrotation Yrotation Xrotation
				JOINT LeftToe
				{
					OFFSET 0.026358 -0.055791 0.119288
					CHANNELS 3 Zrotation Yrotation Xrotation
					End Site
					{
						OFFSET 0.000000 0.000000 0.000000
					}
				}
			}
		}
	}
	JOINT RightUpLeg
	{
		OFFSET -0.067670 -0.090522 -0.004320
		CHANNELS 3 Zrotation Yrotation Xrotation
		JOINT RightLeg
		{
			OFFSET -0.038290 -0.382569 -0.008850
			CHANNELS 3 Zrotation Yrotation Xrotation
			JOINT RightFoot
			{
				OFFSET 0.015774 -0.398415 -0.042312
				CHANNELS 3 Zrotation Yrotation Xrotation
				JOINT RightToe
				{
					OFFSET -0.025372 -0.048144 0.123348
					CHANNELS 3 Zrotation Yrotation Xrotation
					End Site
					{
						OFFSET 0.000000 0.000000 0.000000
					}
				}
			}
		}
	}
	JOINT Spine
	{
		OFFSET -0.002533 0.108963 -0.026696
		CHANNELS 3 Zrotation Yrotation Xrotation
		JOINT Spine1
		{
			OFFSET 0.005487 0.135180 0.001092
			CHANNELS 3 Zrotation Yrotation Xrotation
			JOINT Spine2
			{
				OFFSET 0.001457 0.052922 0.025425
				CHANNELS 3 Zrotation Yrotation Xrotation
				JOINT Neck
				{
					OFFSET -0.002778 0.213870 -0.042857
					CHANNELS 3 Zrotation Yrotation Xrotation
					JOINT Head
					{
						OFFSET 0.005152 0.064970 0.051349
						CHANNELS 3 Zrotation Yrotation Xrotation
						End Site
						{
							OFFSET 0.000000 0.000000 0.000000
						}
					}
				}
				JOINT LeftShoulder
				{
					OFFSET 0.078845 0.121749 -0.034090
					CHANNELS 3 Zrotation Yrotation Xrotation
					JOINT LeftArm
					{
						OFFSET 0.090977 0.030469 -0.008868
						CHANNELS 3 Zrotation Yrotation Xrotation
						JOINT LeftForeArm
						{
							OFFSET 0.259612 -0.012772 -0.027456
							CHANNELS 3 Zrotation Yrotation Xrotation
							JOINT LeftHand
							{
								OFFSET 0.249234 0.008986 -0.001171
								CHANNELS 3 Zrotation Yrotation Xrotation
								End Site
								{
									OFFSET 0.000000 0.000000 0.000000
								}
							}
						}
					}
				}
				JOINT RightShoulder
				{
					OFFSET -0.081759 0.118833 -0.038615
					CHANNELS 3 Zrotation Yrotation Xrotation
					JOINT RightArm
					{
						OFFSET -0.096012 0.032551 -0.009143
						CHANNELS 3 Zrotation Yrotation Xrotation
						JOINT RightForeArm
						{
							OFFSET -0.253742 -0.013329 -0.021401
							CHANNELS 3 Zrotation Yrotation Xrotation
							JOINT RightHand
							{
								OFFSET -0.255298 0.007772 -0.005559
								CHANNELS 3 Zrotation Yrotation Xrotation
								End Site
								{
									OFFSET 0.000000 0.000000 0.000000
								}
							}
						}
					}
				}
			}
		}
	}
}
MOTION
Frames: 7
Frame Time: 0.050000
0.000000 0.953667 0.000000 -1.164900 -20.505953 1.982660 1.703005 0.391392 3.629380 -2.080091 0.345239 -2.313927 18.649240 28.877112 27.010544 0.000000 0.000000 0.000000 -5.823946 0.443860 0.422715 6.773074 -0.169717 -5.165966 3.755439 -3.432724 16.857823 0.000000 0.000000 0.000000 8.941652 -0.904865 8.481079 -3.113655 1.000371 -24.603737 -0.875231 8.488319 28.135188 9.086831 -3.559214 -31.134917 0.000000 0.000000 0.000000 -26.503083 -3.452295 2.642555 -36.009836 -1.796965 -6.142341 9.878310 -20.015890 -0.599463 0.000000 0.000000 0.000000 37.335414 -4.406070 -9.095434 45.553822 -7.364073 -8.200923 0.480286 33.645594 1.362377 0.000000 0.000000 0.000000 
0.012449 0.951556 -0.000940 -1.516058 -20.028549 2.700483 2.189546 0.314156 2.946701 -3.530952 0.544306 -2.902308 18.486539 29.091315 25.420611 0.000000 0.000000 0.000000 -5.270545 0.457614 -1.338091 5.291443 -0.221590 -3.516748 3.062468 -4.035860 15.782030 0.000000 0.000000 0.000000 8.984610 -0.888705 7.993333 -3.109518 1.022566 -25.227250 -0.430105 9.494905 28.569260 12.552685 -5.029678 -32.010961 0.000000 0.000000 0.000000 -24.845227 -3.777228 2.416719 -38.655578 -1.537582 -6.527359 8.649597 -21.363288 -0.422261 0.000000 0.000000 0.000000 39.014556 -6.347892 -10.385655 45.493341 -6.568248 -8.073510 2.138841 34.567448 2.019089 0.000000 0.000000 0.000000 
0.027596 0.949440 -0.002053 -1.638954 -17.917089 2.178095 1.780152 0.275729 2.658065 -3.710499 0.552968 -2.319424 17.402289 28.486598 22.788104 0.000000 0.000000 0.000000 -5.161612 0.392398 -0.684049 4.453393 -0.243569 -3.528975 1.220821 -6.571513 15.199378 0.000000 0.000000 0.000000 9.526279 -0.971597 8.471920 -4.216606 1.327080 -25.063025 -0.187491 8.445975 28.767337 11.651458 -4.266446 -33.647978 0.000000 0.000000 0.000000 -23.162433 -3.923786 2.330966 -42.128159 -0.866865 -7.193321 6.754023 -24.256520 -0.054728 0.000000 0.000000 0.000000 36.602871 -5.478830 -8.835071 48.658858 -6.012336 -8.633221 3.630567 35.263623 2.579259 0.000000 0.000000 0.000000 
0.045665 0.947877 -0.003491 -1.376173 -15.161451 2.240265 1.074570 0.183863 1.839078 -4.333259 0.610802 -2.300193 15.839950 27.119529 20.185210 0.000000 0.000000 0.000000 -6.362953 0.474327 -1.559594 5.159864 -0.319846 -2.034843 -1.286807 -10.262159 14.916541 0.000000 0.000000 0.000000 9.263306 -1.000836 8.542897 -4.018021 1.336604 -25.502031 -0.065233 9.441820 29.026244 12.157882 -3.834775 -35.174430 0.000000 0.000000 0.000000 -23.918744 -5.412156 2.236960 -42.908943 -0.563534 -7.115397 5.191103 -28.518557 0.180862 0.000000 0.000000 0.000000 40.019644 -5.353775 -7.961586 46.464628 -4.787332 -8.177949 3.856032 36.207020 2.989613 0.000000 0.000000 0.000000 
0.065304 0.948012 -0.005339 -0.982744 -11.438852 1.495148 0.046260 0.161362 1.616407 -4.667110 0.620534 -1.816334 13.661240 24.722247 17.863104 0.000000 0.000000 0.000000 -7.202984 0.490920 -2.740385 4.968543 -0.374522 2.204140 -4.137199 -14.448847 14.564565 0.000000 0.000000 0.000000 8.974714 -1.069541 9.161172 -4.246408 1.442074 -25.106176 -0.063427 8.988529 28.640728 11.801145 -3.411776 -34.916595 0.000000 0.000000 0.000000 -23.876464 -5.396270 1.481601 -44.729363 0.203950 -7.441746 2.375847 -34.561552 1.002933 0.000000 0.000000 0.000000 40.760144 -5.116579 -6.735233 44.659033 -2.405877 -7.373341 5.287587 37.698680 3.740378 0.000000 0.000000 0.000000 
0.084691 0.947212 -0.006945 -0.884916 -6.478416 0.450819 -0.899432 0.229689 2.163453 -4.468084 0.546362 -1.727649 10.936156 21.394000 14.994438 0.000000 0.000000 0.000000 -8.465491 0.445115 -3.816219 5.872946 -0.563063 7.489641 -6.852646 -18.503455 15.556510 0.000000 0.000000 0.000000 8.080907 -1.117220 10.001718 -3.870331 1.434505 -24.783314 0.429226 8.247344 28.906523 10.634429 -2.336384 -35.844440 0.000000 0.000000 0.000000 -24.714679 -5.336272 0.451702 -44.958671 0.558005 -7.337181 -2.848558 -42.323357 3.012035 0.000000 0.000000 0.000000 40.298024 -4.706396 -4.798629 44.336457 0.768901 -6.743642 7.944103 40.996770 5.374591 0.000000 0.000000 0.000000 
0.103219 0.947542 -0.007457 -1.260786 -1.127836 -0.946241 -1.377161 0.340737 3.159551 -4.088273 0.457050 -1.284686 8.152315 17.555225 12.696066 0.000000 0.000000 0.000000 -8.704239 0.367104 -6.673889 5.896201 -0.782375 16.502005 -9.722553 -22.472873 20.031633 0.000000 0.000000 0.000000 7.629665 -1.216195 10.999424 -3.089923 1.341756 -23.748039 0.146462 6.991562 28.293189 10.357175 -1.929577 -35.411992 0.000000 0.000000 0.000000 -25.354377 -6.004544 -0.101726 -44.318009 1.545502 -7.240437 -9.937121 -51.520214 6.755765 0.000000 0.000000 0.000000 39.589813 -3.878310 -2.731126 43.779410 3.421797 -6.158879 12.153748 46.604160 8.372859 0.000000 0.000000 0.000000 
